<svg width="1716" height="376" viewBox="0 0 1716 376" fill="none" xmlns="http://www.w3.org/2000/svg">
<path d="M140.566 229.6C140.566 243.813 145.246 254.733 154.606 262.36C164.313 269.987 177.313 273.8 193.606 273.8C208.166 273.8 218.913 271.373 225.846 266.52C232.78 261.667 238.673 254.387 243.526 244.68C248.033 235.667 254.1 231.16 261.726 231.16H374.046C377.166 231.16 379.766 232.373 381.846 234.8C384.273 236.88 385.486 239.48 385.486 242.6C385.486 263.747 378.38 284.547 364.166 305C349.953 325.107 328.286 341.92 299.166 355.44C270.393 368.613 235.206 375.2 193.606 375.2C156.513 375.2 123.406 369.653 94.2863 358.56C65.5129 347.12 42.6329 329.787 25.6463 306.56C8.65958 282.987 0.166251 253.693 0.166251 218.68V157.32C0.166251 122.307 8.65958 93.1866 25.6463 69.96C42.6329 46.3866 65.5129 29.0533 94.2863 17.96C123.406 6.51998 156.513 0.79998 193.606 0.79998C235.206 0.79998 270.393 7.55999 299.166 21.08C328.286 34.2533 349.953 51.0667 364.166 71.52C378.38 91.6267 385.486 112.253 385.486 133.4C385.486 136.52 384.273 139.293 381.846 141.72C379.766 143.8 377.166 144.84 374.046 144.84H261.726C254.1 144.84 248.033 140.333 243.526 131.32C238.673 121.613 232.78 114.333 225.846 109.48C218.913 104.627 208.166 102.2 193.606 102.2C177.313 102.2 164.313 106.013 154.606 113.64C145.246 121.267 140.566 132.187 140.566 146.4V229.6ZM700.923 263.4H795.043C798.856 263.4 802.15 264.787 804.923 267.56C807.696 270.333 809.083 273.627 809.083 277.44V355.96C809.083 359.773 807.696 363.067 804.923 365.84C802.15 368.613 798.856 370 795.043 370H465.363C461.55 370 458.256 368.613 455.483 365.84C452.71 363.067 451.323 359.773 451.323 355.96V277.44C451.323 273.627 452.71 270.333 455.483 267.56C458.256 264.787 461.55 263.4 465.363 263.4H560.523V112.6H465.363C461.55 112.6 458.256 111.213 455.483 108.44C452.71 105.667 451.323 102.373 451.323 98.56V20.04C451.323 16.2267 452.71 12.9333 455.483 10.16C458.256 7.38664 461.55 5.99998 465.363 5.99998H795.043C798.856 5.99998 802.15 7.38664 804.923 10.16C807.696 12.9333 809.083 16.2267 809.083 20.04V98.56C809.083 102.373 807.696 105.667 804.923 108.44C802.15 111.213 798.856 112.6 795.043 112.6H700.923V263.4ZM1251.4 5.99998C1255.21 5.99998 1258.51 7.38664 1261.28 10.16C1264.05 12.9333 1265.44 16.2267 1265.44 20.04V103.76C1265.44 107.573 1264.05 110.867 1261.28 113.64C1258.51 116.413 1255.21 117.8 1251.4 117.8H1139.6V355.96C1139.6 359.773 1138.21 363.067 1135.44 365.84C1132.67 368.613 1129.37 370 1125.56 370H1018.44C1014.63 370 1011.33 368.613 1008.56 365.84C1005.79 363.067 1004.4 359.773 1004.4 355.96V117.8H892.6C888.787 117.8 885.493 116.413 882.72 113.64C879.947 110.867 878.56 107.573 878.56 103.76V20.04C878.56 16.2267 879.947 12.9333 882.72 10.16C885.493 7.38664 888.787 5.99998 892.6 5.99998H1251.4ZM1704.12 5.99998C1707.24 5.99998 1709.84 7.21331 1711.92 9.63999C1714.34 11.72 1715.56 14.1467 1715.56 16.92C1715.56 19 1715.04 21.08 1714 23.16L1582.96 240V355.96C1582.96 359.773 1581.57 363.067 1578.8 365.84C1576.02 368.613 1572.73 370 1568.92 370H1458.16C1454.34 370 1451.05 368.613 1448.28 365.84C1445.5 363.067 1444.12 359.773 1444.12 355.96V240L1313.6 23.16C1312.56 21.08 1312.04 19.1733 1312.04 17.44C1312.04 14.32 1313.08 11.72 1315.16 9.63999C1317.58 7.21331 1320.36 5.99998 1323.48 5.99998H1433.2C1442.9 5.99998 1450.01 9.98664 1454.52 17.96L1513.28 120.92L1573.6 19C1578.8 10.3333 1586.08 5.99998 1595.44 5.99998H1704.12Z" fill="#013344" fill-opacity="0.15"/>
</svg>
