<svg width="1657" height="376" viewBox="0 0 1657 376" fill="none" xmlns="http://www.w3.org/2000/svg">
<path d="M318.426 263.4C322.24 263.4 325.533 264.787 328.306 267.56C331.08 270.333 332.466 273.627 332.466 277.44V355.96C332.466 359.773 331.08 363.067 328.306 365.84C325.533 368.613 322.24 370 318.426 370H14.7463C10.9329 370 7.63958 368.613 4.86625 365.84C2.09292 363.067 0.70625 359.773 0.70625 355.96V20.04C0.70625 16.2267 2.09292 12.9333 4.86625 10.16C7.63958 7.38664 10.9329 5.99998 14.7463 5.99998H127.066C130.88 5.99998 134.173 7.38664 136.946 10.16C139.72 12.9333 141.106 16.2267 141.106 20.04V263.4H318.426ZM784.143 219.72C784.143 272.76 766.463 311.933 731.103 337.24C696.09 362.547 649.29 375.2 590.703 375.2C532.116 375.2 485.143 362.547 449.783 337.24C414.77 311.933 397.263 272.413 397.263 218.68V157.32C397.263 121.96 405.583 92.6667 422.223 69.44C439.21 45.8667 462.263 28.5333 491.383 17.44C520.503 6.34665 553.61 0.79998 590.703 0.79998C627.796 0.79998 660.73 6.34665 689.503 17.44C718.623 28.5333 741.676 45.6933 758.663 68.92C775.65 92.1466 784.143 121.267 784.143 156.28V219.72ZM537.663 229.6C537.663 243.813 542.343 254.733 551.703 262.36C561.41 269.987 574.41 273.8 590.703 273.8C606.996 273.8 619.823 269.987 629.183 262.36C638.89 254.387 643.743 243.293 643.743 229.08V146.92C643.743 132.707 638.89 121.787 629.183 114.16C619.823 106.187 606.996 102.2 590.703 102.2C574.41 102.2 561.41 106.013 551.703 113.64C542.343 121.267 537.663 132.187 537.663 146.4V229.6ZM1225.42 5.99998C1228.54 5.99998 1231.14 7.21331 1233.22 9.63999C1235.65 11.72 1236.86 14.32 1236.86 17.44L1236.34 21.08L1116.74 352.84C1115.01 357.693 1112.23 361.853 1108.42 365.32C1104.61 368.44 1099.58 370 1093.34 370H972.18C965.94 370 960.913 368.44 957.1 365.32C953.287 361.853 950.687 358.213 949.3 354.4L828.66 21.08L828.14 17.44C828.14 14.32 829.18 11.72 831.26 9.63999C833.687 7.21331 836.46 5.99998 839.58 5.99998H949.3C955.54 5.99998 960.567 7.90665 964.38 11.72C968.54 15.1867 971.313 19 972.7 23.16L1032.5 222.32L1092.3 23.16C1093.69 18.6533 1096.29 14.6667 1100.1 11.2C1103.91 7.73331 1109.11 5.99998 1115.7 5.99998H1225.42ZM1642.78 268.6C1646.59 268.6 1649.88 269.987 1652.66 272.76C1655.43 275.533 1656.82 278.827 1656.82 282.64V355.96C1656.82 359.773 1655.43 363.067 1652.66 365.84C1649.88 368.613 1646.59 370 1642.78 370H1314.14C1310.32 370 1307.03 368.613 1304.26 365.84C1301.48 363.067 1300.1 359.773 1300.1 355.96V20.04C1300.1 16.2267 1301.48 12.9333 1304.26 10.16C1307.03 7.38664 1310.32 5.99998 1314.14 5.99998H1637.58C1641.39 5.99998 1644.68 7.38664 1647.46 10.16C1650.23 12.9333 1651.62 16.2267 1651.62 20.04V93.36C1651.62 97.1733 1650.23 100.467 1647.46 103.24C1644.68 106.013 1641.39 107.4 1637.58 107.4H1435.3V140.16H1608.98C1612.79 140.16 1616.08 141.547 1618.86 144.32C1621.63 147.093 1623.02 150.387 1623.02 154.2V221.8C1623.02 225.613 1621.63 228.907 1618.86 231.68C1616.08 234.453 1612.79 235.84 1608.98 235.84H1435.3V268.6H1642.78Z" fill="#013344" fill-opacity="0.15"/>
</svg>
