<svg width="1719" height="364" viewBox="0 0 1719 364" fill="none" xmlns="http://www.w3.org/2000/svg">
<path d="M268.026 14.04C273.226 4.67998 280.68 -2.47955e-05 290.386 -2.47955e-05H385.546C389.36 -2.47955e-05 392.653 1.38664 395.426 4.15998C398.2 6.93332 399.586 10.2267 399.586 14.04V349.96C399.586 353.773 398.2 357.067 395.426 359.84C392.653 362.613 389.36 364 385.546 364H291.426C287.613 364 284.32 362.613 281.546 359.84C278.773 357.067 277.386 353.773 277.386 349.96V188.76L239.426 263.64C238.386 266.067 235.96 268.84 232.146 271.96C228.333 275.08 223.48 276.64 217.586 276.64H182.226C176.333 276.64 171.48 275.08 167.666 271.96C163.853 268.84 161.426 266.067 160.386 263.64L122.426 188.76V349.96C122.426 353.773 121.04 357.067 118.266 359.84C115.493 362.613 112.2 364 108.386 364H14.2663C10.4529 364 7.15959 362.613 4.38625 359.84C1.61292 357.067 0.226251 353.773 0.226251 349.96V14.04C0.226251 10.2267 1.61292 6.93332 4.38625 4.15998C7.15959 1.38664 10.4529 -2.47955e-05 14.2663 -2.47955e-05H109.426C119.133 -2.47955e-05 126.586 4.67998 131.786 14.04L199.906 138.84L268.026 14.04ZM712.423 257.4H806.543C810.356 257.4 813.65 258.787 816.423 261.56C819.196 264.333 820.583 267.627 820.583 271.44V349.96C820.583 353.773 819.196 357.067 816.423 359.84C813.65 362.613 810.356 364 806.543 364H476.863C473.05 364 469.756 362.613 466.983 359.84C464.21 357.067 462.823 353.773 462.823 349.96V271.44C462.823 267.627 464.21 264.333 466.983 261.56C469.756 258.787 473.05 257.4 476.863 257.4H572.023V106.6H476.863C473.05 106.6 469.756 105.213 466.983 102.44C464.21 99.6667 462.823 96.3733 462.823 92.56V14.04C462.823 10.2267 464.21 6.93332 466.983 4.15998C469.756 1.38664 473.05 -2.47955e-05 476.863 -2.47955e-05H806.543C810.356 -2.47955e-05 813.65 1.38664 816.423 4.15998C819.196 6.93332 820.583 10.2267 820.583 14.04V92.56C820.583 96.3733 819.196 99.6667 816.423 102.44C813.65 105.213 810.356 106.6 806.543 106.6H712.423V257.4ZM1246.26 -2.47955e-05C1250.07 -2.47955e-05 1253.37 1.38664 1256.14 4.15998C1258.91 6.93332 1260.3 10.2267 1260.3 14.04V349.96C1260.3 353.773 1258.91 357.067 1256.14 359.84C1253.37 362.613 1250.07 364 1246.26 364H1162.54C1154.22 364 1147.29 360.36 1141.74 353.08L1028.38 208.52V349.96C1028.38 353.773 1026.99 357.067 1024.22 359.84C1021.45 362.613 1018.15 364 1014.34 364H917.62C913.807 364 910.513 362.613 907.74 359.84C904.967 357.067 903.58 353.773 903.58 349.96V14.04C903.58 10.2267 904.967 6.93332 907.74 4.15998C910.513 1.38664 913.807 -2.47955e-05 917.62 -2.47955e-05H1001.86C1010.18 -2.47955e-05 1016.94 3.46665 1022.14 10.4L1135.5 166.92V14.04C1135.5 10.2267 1136.89 6.93332 1139.66 4.15998C1142.43 1.38664 1145.73 -2.47955e-05 1149.54 -2.47955e-05H1246.26ZM1704.7 -2.47955e-05C1708.51 -2.47955e-05 1711.8 1.38664 1714.58 4.15998C1717.35 6.93332 1718.74 10.2267 1718.74 14.04V97.76C1718.74 101.573 1717.35 104.867 1714.58 107.64C1711.8 110.413 1708.51 111.8 1704.7 111.8H1592.9V349.96C1592.9 353.773 1591.51 357.067 1588.74 359.84C1585.96 362.613 1582.67 364 1578.86 364H1471.74C1467.92 364 1464.63 362.613 1461.86 359.84C1459.08 357.067 1457.7 353.773 1457.7 349.96V111.8H1345.9C1342.08 111.8 1338.79 110.413 1336.02 107.64C1333.24 104.867 1331.86 101.573 1331.86 97.76V14.04C1331.86 10.2267 1333.24 6.93332 1336.02 4.15998C1338.79 1.38664 1342.08 -2.47955e-05 1345.9 -2.47955e-05H1704.7Z" fill="#013344" fill-opacity="0.15"/>
</svg>
